<?xml version="1.0"?><svg fill="#000000" xmlns="http://www.w3.org/2000/svg" viewBox="0 0 24 24" width="24px" height="24px">    <path d="M21,3H3v18h18V3z M6.277,7.578c0.278-0.367,0.699-0.596,1.158-0.577C8.121,7.029,8.5,7.522,8.5,7.522 s0.379-0.493,1.064-0.521c0.46-0.019,0.881,0.21,1.158,0.577c0.966,1.276-0.863,2.769-1.293,3.17 c-0.257,0.24-0.575,0.525-0.764,0.693c-0.095,0.085-0.236,0.085-0.331,0c-0.19-0.169-0.507-0.454-0.764-0.693 C7.14,10.347,5.311,8.854,6.277,7.578z M18,17H6v-2h12V17z M18,13h-6v-2h6V13z M18,9h-4V7h4V9z"/></svg>